<svg width="428" height="762" viewBox="0 0 428 762" fill="none" xmlns="http://www.w3.org/2000/svg">
<g clip-path="url(#clip0_62_458)">
<rect width="428" height="762" fill="#F4E8DE"/>
<rect x="12.5" y="80.5" width="403" height="47.002" rx="7.5" fill="#F4E8DE"/>
<g clip-path="url(#clip1_62_458)">
<path opacity="0.8" d="M38.2266 97.626V109.001H36.0703L31.2344 101.11V109.001H29.0859V97.626H31.2344L36.0859 105.524V97.626H38.2266ZM44.9141 107.204V103.306C44.9141 103.019 44.8646 102.772 44.7656 102.564C44.6667 102.355 44.5156 102.194 44.3125 102.079C44.1094 101.965 43.8516 101.907 43.5391 101.907C43.263 101.907 43.0208 101.954 42.8125 102.048C42.6094 102.142 42.4531 102.274 42.3438 102.446C42.2344 102.613 42.1797 102.806 42.1797 103.024H40.1094C40.1094 102.675 40.1927 102.345 40.3594 102.032C40.526 101.715 40.763 101.433 41.0703 101.189C41.3828 100.939 41.7552 100.743 42.1875 100.603C42.625 100.462 43.1146 100.392 43.6562 100.392C44.2969 100.392 44.8672 100.501 45.3672 100.72C45.8724 100.933 46.2682 101.256 46.5547 101.689C46.8464 102.121 46.9922 102.665 46.9922 103.321V107.009C46.9922 107.431 47.0182 107.793 47.0703 108.095C47.1276 108.392 47.2109 108.649 47.3203 108.868V109.001H45.2188C45.1198 108.787 45.0443 108.517 44.9922 108.189C44.9401 107.855 44.9141 107.527 44.9141 107.204ZM45.2031 103.853L45.2188 105.079H43.9141C43.5911 105.079 43.3073 105.113 43.0625 105.181C42.8177 105.243 42.6172 105.337 42.4609 105.462C42.3047 105.582 42.1875 105.728 42.1094 105.899C42.0312 106.066 41.9922 106.256 41.9922 106.47C41.9922 106.678 42.0391 106.866 42.1328 107.032C42.2318 107.199 42.3724 107.332 42.5547 107.431C42.7422 107.524 42.9609 107.571 43.2109 107.571C43.5755 107.571 43.8932 107.498 44.1641 107.353C44.4349 107.202 44.6458 107.019 44.7969 106.806C44.9479 106.592 45.0286 106.389 45.0391 106.196L45.6328 107.087C45.5599 107.3 45.4505 107.527 45.3047 107.767C45.1589 108.006 44.9714 108.23 44.7422 108.439C44.513 108.647 44.237 108.819 43.9141 108.954C43.5911 109.09 43.2161 109.157 42.7891 109.157C42.2422 109.157 41.7526 109.048 41.3203 108.829C40.888 108.61 40.5469 108.311 40.2969 107.931C40.0469 107.55 39.9219 107.118 39.9219 106.634C39.9219 106.186 40.0052 105.79 40.1719 105.446C40.3385 105.103 40.5859 104.814 40.9141 104.579C41.2422 104.34 41.6484 104.16 42.1328 104.04C42.6224 103.915 43.1823 103.853 43.8125 103.853H45.2031ZM50.9062 102.282V109.001H48.8438V100.548H50.7891L50.9062 102.282ZM50.6016 104.47H49.9688C49.9688 103.881 50.0391 103.34 50.1797 102.845C50.3255 102.35 50.5391 101.92 50.8203 101.556C51.1016 101.186 51.4479 100.899 51.8594 100.696C52.276 100.493 52.7578 100.392 53.3047 100.392C53.6849 100.392 54.0339 100.449 54.3516 100.564C54.6693 100.673 54.9427 100.847 55.1719 101.087C55.4062 101.321 55.5859 101.629 55.7109 102.009C55.8359 102.384 55.8984 102.834 55.8984 103.36V109.001H53.8359V103.571C53.8359 103.175 53.7786 102.866 53.6641 102.642C53.5547 102.418 53.3958 102.261 53.1875 102.173C52.9792 102.079 52.7292 102.032 52.4375 102.032C52.1146 102.032 51.8359 102.097 51.6016 102.228C51.3724 102.353 51.1823 102.527 51.0312 102.751C50.8854 102.975 50.776 103.233 50.7031 103.524C50.6354 103.816 50.6016 104.131 50.6016 104.47ZM55.7422 104.087L54.8906 104.243C54.8958 103.712 54.9688 103.215 55.1094 102.751C55.25 102.282 55.4557 101.873 55.7266 101.524C56.0026 101.17 56.3438 100.894 56.75 100.696C57.1615 100.493 57.6354 100.392 58.1719 100.392C58.5885 100.392 58.9635 100.452 59.2969 100.571C59.6354 100.686 59.9245 100.871 60.1641 101.126C60.4036 101.376 60.5859 101.702 60.7109 102.103C60.8411 102.504 60.9062 102.993 60.9062 103.571V109.001H58.8281V103.564C58.8281 103.152 58.7708 102.837 58.6562 102.618C58.5469 102.399 58.388 102.248 58.1797 102.165C57.9714 102.077 57.7266 102.032 57.4453 102.032C57.1589 102.032 56.9089 102.087 56.6953 102.196C56.487 102.3 56.3099 102.446 56.1641 102.634C56.0234 102.821 55.9167 103.04 55.8438 103.29C55.776 103.535 55.7422 103.8 55.7422 104.087ZM66.5547 109.157C65.9141 109.157 65.3385 109.053 64.8281 108.845C64.3177 108.636 63.8828 108.347 63.5234 107.978C63.1693 107.603 62.8958 107.168 62.7031 106.673C62.5156 106.173 62.4219 105.636 62.4219 105.064V104.751C62.4219 104.1 62.5156 103.509 62.7031 102.978C62.8906 102.441 63.1562 101.98 63.5 101.595C63.8438 101.209 64.2552 100.912 64.7344 100.704C65.2135 100.496 65.7422 100.392 66.3203 100.392C66.9193 100.392 67.4479 100.493 67.9062 100.696C68.3646 100.894 68.7474 101.175 69.0547 101.54C69.362 101.905 69.5938 102.342 69.75 102.853C69.9062 103.358 69.9844 103.918 69.9844 104.532V105.399H63.3594V103.978H67.9531V103.821C67.9427 103.493 67.8802 103.194 67.7656 102.923C67.651 102.647 67.474 102.428 67.2344 102.267C66.9948 102.1 66.6849 102.017 66.3047 102.017C65.9974 102.017 65.7292 102.084 65.5 102.22C65.276 102.35 65.0885 102.537 64.9375 102.782C64.7917 103.022 64.6823 103.308 64.6094 103.642C64.5365 103.975 64.5 104.345 64.5 104.751V105.064C64.5 105.418 64.5469 105.746 64.6406 106.048C64.7396 106.35 64.8828 106.613 65.0703 106.837C65.263 107.056 65.4922 107.228 65.7578 107.353C66.0286 107.472 66.3359 107.532 66.6797 107.532C67.112 107.532 67.5026 107.449 67.8516 107.282C68.2057 107.11 68.513 106.858 68.7734 106.524L69.8125 107.603C69.6354 107.863 69.3958 108.113 69.0938 108.353C68.7969 108.592 68.4375 108.787 68.0156 108.939C67.5938 109.084 67.1068 109.157 66.5547 109.157Z" fill="#332317"/>
</g>
<rect x="12.5" y="80.5" width="403" height="47.002" rx="7.5" stroke="#A77C5D"/>
<rect x="12.5" y="168.5" width="403" height="47.002" rx="7.5" fill="#F4E8DE"/>
<g clip-path="url(#clip2_62_458)">
<path opacity="0.8" d="M35.0391 194.048C35.0391 193.829 35.0052 193.634 34.9375 193.462C34.875 193.285 34.7578 193.126 34.5859 192.985C34.4193 192.84 34.1823 192.699 33.875 192.564C33.5729 192.423 33.1823 192.277 32.7031 192.126C32.1719 191.959 31.6771 191.772 31.2188 191.564C30.7604 191.355 30.3568 191.113 30.0078 190.837C29.6641 190.561 29.3958 190.243 29.2031 189.884C29.0104 189.519 28.9141 189.097 28.9141 188.618C28.9141 188.149 29.013 187.722 29.2109 187.337C29.4141 186.952 29.7005 186.621 30.0703 186.345C30.4401 186.064 30.875 185.847 31.375 185.696C31.8802 185.545 32.4375 185.47 33.0469 185.47C33.8906 185.47 34.6198 185.623 35.2344 185.931C35.8542 186.238 36.3333 186.655 36.6719 187.181C37.0104 187.707 37.1797 188.298 37.1797 188.954H35.0391C35.0391 188.6 34.9635 188.287 34.8125 188.017C34.6667 187.746 34.4427 187.532 34.1406 187.376C33.8438 187.22 33.4688 187.142 33.0156 187.142C32.5781 187.142 32.2135 187.207 31.9219 187.337C31.6354 187.467 31.4193 187.644 31.2734 187.868C31.1328 188.092 31.0625 188.342 31.0625 188.618C31.0625 188.827 31.112 189.014 31.2109 189.181C31.3099 189.342 31.4583 189.496 31.6562 189.642C31.8542 189.782 32.099 189.915 32.3906 190.04C32.6875 190.16 33.0312 190.28 33.4219 190.399C34.0469 190.587 34.5938 190.795 35.0625 191.024C35.5365 191.254 35.9297 191.514 36.2422 191.806C36.5599 192.097 36.7969 192.425 36.9531 192.79C37.1146 193.155 37.1953 193.569 37.1953 194.032C37.1953 194.522 37.099 194.959 36.9062 195.345C36.7135 195.73 36.4375 196.058 36.0781 196.329C35.7188 196.6 35.2865 196.806 34.7812 196.946C34.2812 197.087 33.7214 197.157 33.1016 197.157C32.5495 197.157 32.0026 197.084 31.4609 196.939C30.9245 196.787 30.4375 196.564 30 196.267C29.5625 195.965 29.2135 195.584 28.9531 195.126C28.6927 194.662 28.5625 194.121 28.5625 193.501H30.7188C30.7188 193.86 30.776 194.168 30.8906 194.423C31.0104 194.673 31.1771 194.879 31.3906 195.04C31.6094 195.196 31.8646 195.311 32.1562 195.384C32.4479 195.457 32.763 195.493 33.1016 195.493C33.5391 195.493 33.8984 195.433 34.1797 195.314C34.4661 195.189 34.6797 195.017 34.8203 194.798C34.9661 194.579 35.0391 194.329 35.0391 194.048ZM40.7578 190.173V200.251H38.6875V188.548H40.6016L40.7578 190.173ZM46.1875 192.689V192.853C46.1875 193.467 46.1146 194.037 45.9688 194.564C45.8281 195.084 45.6198 195.54 45.3438 195.931C45.0677 196.316 44.724 196.618 44.3125 196.837C43.9062 197.05 43.4375 197.157 42.9062 197.157C42.3854 197.157 41.9323 197.058 41.5469 196.86C41.1615 196.657 40.8359 196.371 40.5703 196.001C40.3047 195.631 40.0911 195.202 39.9297 194.712C39.7734 194.217 39.6562 193.678 39.5781 193.095V192.571C39.6562 191.952 39.7734 191.389 39.9297 190.884C40.0911 190.373 40.3047 189.933 40.5703 189.564C40.8359 189.189 41.1589 188.899 41.5391 188.696C41.9245 188.493 42.375 188.392 42.8906 188.392C43.4271 188.392 43.8984 188.493 44.3047 188.696C44.7161 188.899 45.0625 189.191 45.3438 189.571C45.625 189.952 45.8359 190.405 45.9766 190.931C46.1172 191.457 46.1875 192.043 46.1875 192.689ZM44.1172 192.853V192.689C44.1172 192.314 44.0833 191.967 44.0156 191.649C43.9479 191.327 43.8438 191.045 43.7031 190.806C43.5625 190.561 43.3802 190.371 43.1562 190.235C42.9323 190.1 42.6615 190.032 42.3438 190.032C42.026 190.032 41.7526 190.084 41.5234 190.189C41.2943 190.293 41.1068 190.441 40.9609 190.634C40.8151 190.827 40.7005 191.056 40.6172 191.321C40.5391 191.582 40.487 191.871 40.4609 192.189V193.485C40.5078 193.871 40.599 194.217 40.7344 194.524C40.8698 194.832 41.0677 195.077 41.3281 195.259C41.5938 195.441 41.9375 195.532 42.3594 195.532C42.6771 195.532 42.9479 195.462 43.1719 195.321C43.3958 195.181 43.5781 194.988 43.7188 194.743C43.8594 194.493 43.9609 194.207 44.0234 193.884C44.0859 193.561 44.1172 193.217 44.1172 192.853ZM51.4922 197.157C50.8516 197.157 50.276 197.053 49.7656 196.845C49.2552 196.636 48.8203 196.347 48.4609 195.978C48.1068 195.603 47.8333 195.168 47.6406 194.673C47.4531 194.173 47.3594 193.636 47.3594 193.064V192.751C47.3594 192.1 47.4531 191.509 47.6406 190.978C47.8281 190.441 48.0938 189.98 48.4375 189.595C48.7812 189.209 49.1927 188.912 49.6719 188.704C50.151 188.496 50.6797 188.392 51.2578 188.392C51.8568 188.392 52.3854 188.493 52.8438 188.696C53.3021 188.894 53.6849 189.175 53.9922 189.54C54.2995 189.905 54.5312 190.342 54.6875 190.853C54.8438 191.358 54.9219 191.918 54.9219 192.532V193.399H48.2969V191.978H52.8906V191.821C52.8802 191.493 52.8177 191.194 52.7031 190.923C52.5885 190.647 52.4115 190.428 52.1719 190.267C51.9323 190.1 51.6224 190.017 51.2422 190.017C50.9349 190.017 50.6667 190.084 50.4375 190.22C50.2135 190.35 50.026 190.537 49.875 190.782C49.7292 191.022 49.6198 191.308 49.5469 191.642C49.474 191.975 49.4375 192.345 49.4375 192.751V193.064C49.4375 193.418 49.4844 193.746 49.5781 194.048C49.6771 194.35 49.8203 194.613 50.0078 194.837C50.2005 195.056 50.4297 195.228 50.6953 195.353C50.9661 195.472 51.2734 195.532 51.6172 195.532C52.0495 195.532 52.4401 195.449 52.7891 195.282C53.1432 195.11 53.4505 194.858 53.7109 194.524L54.75 195.603C54.5729 195.863 54.3333 196.113 54.0312 196.353C53.7344 196.592 53.375 196.787 52.9531 196.939C52.5312 197.084 52.0443 197.157 51.4922 197.157ZM59.7734 195.532C60.0651 195.532 60.3255 195.475 60.5547 195.36C60.7839 195.246 60.9661 195.084 61.1016 194.876C61.2422 194.668 61.3177 194.425 61.3281 194.149H63.2734C63.263 194.722 63.1016 195.235 62.7891 195.689C62.4766 196.142 62.0599 196.501 61.5391 196.767C61.0234 197.027 60.4453 197.157 59.8047 197.157C59.1536 197.157 58.5859 197.048 58.1016 196.829C57.6172 196.61 57.2135 196.306 56.8906 195.915C56.5729 195.524 56.3333 195.071 56.1719 194.556C56.0156 194.04 55.9375 193.488 55.9375 192.899V192.649C55.9375 192.061 56.0156 191.509 56.1719 190.993C56.3333 190.478 56.5729 190.024 56.8906 189.634C57.2135 189.243 57.6172 188.939 58.1016 188.72C58.5859 188.501 59.151 188.392 59.7969 188.392C60.4792 188.392 61.0781 188.524 61.5938 188.79C62.1146 189.056 62.5208 189.431 62.8125 189.915C63.1094 190.399 63.263 190.97 63.2734 191.626H61.3281C61.3177 191.324 61.25 191.053 61.125 190.814C61 190.574 60.8229 190.381 60.5938 190.235C60.3646 190.09 60.0859 190.017 59.7578 190.017C59.4089 190.017 59.1172 190.09 58.8828 190.235C58.6536 190.381 58.474 190.582 58.3438 190.837C58.2188 191.087 58.1302 191.368 58.0781 191.681C58.0312 191.988 58.0078 192.311 58.0078 192.649V192.899C58.0078 193.243 58.0312 193.571 58.0781 193.884C58.1302 194.196 58.2188 194.478 58.3438 194.728C58.474 194.972 58.6536 195.168 58.8828 195.314C59.1172 195.459 59.4141 195.532 59.7734 195.532ZM66.8359 188.548V197.001H64.7656V188.548H66.8359ZM64.625 186.337C64.625 186.03 64.7292 185.774 64.9375 185.571C65.151 185.368 65.4375 185.267 65.7969 185.267C66.1562 185.267 66.4401 185.368 66.6484 185.571C66.862 185.774 66.9688 186.03 66.9688 186.337C66.9688 186.639 66.862 186.892 66.6484 187.095C66.4401 187.298 66.1562 187.399 65.7969 187.399C65.4375 187.399 65.151 187.298 64.9375 187.095C64.7292 186.892 64.625 186.639 64.625 186.337ZM72.6016 197.157C71.9609 197.157 71.3854 197.053 70.875 196.845C70.3646 196.636 69.9297 196.347 69.5703 195.978C69.2161 195.603 68.9427 195.168 68.75 194.673C68.5625 194.173 68.4688 193.636 68.4688 193.064V192.751C68.4688 192.1 68.5625 191.509 68.75 190.978C68.9375 190.441 69.2031 189.98 69.5469 189.595C69.8906 189.209 70.3021 188.912 70.7812 188.704C71.2604 188.496 71.7891 188.392 72.3672 188.392C72.9661 188.392 73.4948 188.493 73.9531 188.696C74.4115 188.894 74.7943 189.175 75.1016 189.54C75.4089 189.905 75.6406 190.342 75.7969 190.853C75.9531 191.358 76.0312 191.918 76.0312 192.532V193.399H69.4062V191.978H74V191.821C73.9896 191.493 73.9271 191.194 73.8125 190.923C73.6979 190.647 73.5208 190.428 73.2812 190.267C73.0417 190.1 72.7318 190.017 72.3516 190.017C72.0443 190.017 71.776 190.084 71.5469 190.22C71.3229 190.35 71.1354 190.537 70.9844 190.782C70.8385 191.022 70.7292 191.308 70.6562 191.642C70.5833 191.975 70.5469 192.345 70.5469 192.751V193.064C70.5469 193.418 70.5938 193.746 70.6875 194.048C70.7865 194.35 70.9297 194.613 71.1172 194.837C71.3099 195.056 71.5391 195.228 71.8047 195.353C72.0755 195.472 72.3828 195.532 72.7266 195.532C73.1589 195.532 73.5495 195.449 73.8984 195.282C74.2526 195.11 74.5599 194.858 74.8203 194.524L75.8594 195.603C75.6823 195.863 75.4427 196.113 75.1406 196.353C74.8438 196.592 74.4844 196.787 74.0625 196.939C73.6406 197.084 73.1536 197.157 72.6016 197.157ZM82.0625 194.689C82.0625 194.511 82.0156 194.353 81.9219 194.212C81.8281 194.071 81.651 193.944 81.3906 193.829C81.1354 193.709 80.7604 193.597 80.2656 193.493C79.8281 193.399 79.4245 193.282 79.0547 193.142C78.6849 193.001 78.3672 192.832 78.1016 192.634C77.8359 192.431 77.6276 192.194 77.4766 191.923C77.3307 191.647 77.2578 191.329 77.2578 190.97C77.2578 190.621 77.3333 190.293 77.4844 189.985C77.6354 189.673 77.8542 189.399 78.1406 189.165C78.4271 188.925 78.776 188.738 79.1875 188.603C79.599 188.462 80.0625 188.392 80.5781 188.392C81.2969 188.392 81.9141 188.509 82.4297 188.743C82.9505 188.978 83.349 189.3 83.625 189.712C83.901 190.118 84.0391 190.577 84.0391 191.087H81.9766C81.9766 190.863 81.9245 190.66 81.8203 190.478C81.7214 190.295 81.5677 190.149 81.3594 190.04C81.151 189.925 80.888 189.868 80.5703 189.868C80.2839 189.868 80.0417 189.915 79.8438 190.009C79.651 190.103 79.5052 190.225 79.4062 190.376C79.3073 190.527 79.2578 190.694 79.2578 190.876C79.2578 191.011 79.2839 191.134 79.3359 191.243C79.3932 191.347 79.4844 191.444 79.6094 191.532C79.7344 191.621 79.9036 191.702 80.1172 191.774C80.3359 191.847 80.6042 191.918 80.9219 191.985C81.5521 192.11 82.1016 192.277 82.5703 192.485C83.0443 192.689 83.4141 192.959 83.6797 193.298C83.9453 193.636 84.0781 194.069 84.0781 194.595C84.0781 194.97 83.9974 195.314 83.8359 195.626C83.6745 195.933 83.4401 196.202 83.1328 196.431C82.8255 196.66 82.4583 196.84 82.0312 196.97C81.6042 197.095 81.1224 197.157 80.5859 197.157C79.8099 197.157 79.1536 197.019 78.6172 196.743C78.0807 196.462 77.6745 196.108 77.3984 195.681C77.1224 195.248 76.9844 194.8 76.9844 194.337H78.9609C78.9766 194.665 79.0651 194.928 79.2266 195.126C79.388 195.324 79.5911 195.467 79.8359 195.556C80.0859 195.639 80.349 195.681 80.625 195.681C80.9375 195.681 81.2005 195.639 81.4141 195.556C81.6276 195.467 81.7891 195.35 81.8984 195.204C82.0078 195.053 82.0625 194.881 82.0625 194.689Z" fill="#332317"/>
</g>
<mask id="mask0_62_458" style="mask-type:alpha" maskUnits="userSpaceOnUse" x="383" y="188" width="14" height="9">
<path d="M383.578 190.98L388.628 195.491C389.388 196.171 390.617 196.171 391.377 195.491L396.427 190.98C397.655 189.882 396.778 188.001 395.042 188.001H384.943C383.208 188.001 382.35 189.882 383.578 190.98Z" fill="black"/>
</mask>
<g mask="url(#mask0_62_458)">
<path d="M378 180.001H402V204.001H378V180.001Z" fill="#A77C5D"/>
</g>
<rect x="12.5" y="168.5" width="403" height="47.002" rx="7.5" stroke="#A77C5D"/>
<rect x="12.5" y="256.5" width="403" height="47.002" rx="7.5" fill="#F4E8DE"/>
<g clip-path="url(#clip3_62_458)">
<path opacity="0.8" d="M33.4453 279.931H30.5391L30.5234 278.415H33.0156C33.4427 278.415 33.7995 278.355 34.0859 278.235C34.3724 278.116 34.5885 277.941 34.7344 277.712C34.8854 277.483 34.9609 277.204 34.9609 276.876C34.9609 276.511 34.8906 276.215 34.75 275.985C34.6146 275.756 34.401 275.59 34.1094 275.485C33.8177 275.376 33.4479 275.321 33 275.321H31.2344V285.001H29.0859V273.626H33C33.6458 273.626 34.2214 273.688 34.7266 273.813C35.237 273.933 35.6693 274.121 36.0234 274.376C36.3776 274.631 36.6458 274.952 36.8281 275.337C37.0156 275.722 37.1094 276.181 37.1094 276.712C37.1094 277.181 37 277.613 36.7812 278.009C36.5677 278.399 36.237 278.717 35.7891 278.962C35.3464 279.207 34.7839 279.347 34.1016 279.384L33.4453 279.931ZM33.3516 285.001H29.9062L30.8047 283.313H33.3516C33.7786 283.313 34.1302 283.243 34.4062 283.103C34.6875 282.962 34.8958 282.769 35.0312 282.524C35.1719 282.274 35.2422 281.988 35.2422 281.665C35.2422 281.311 35.1797 281.004 35.0547 280.743C34.9349 280.483 34.7422 280.282 34.4766 280.142C34.2161 280.001 33.8724 279.931 33.4453 279.931H31.2109L31.2266 278.415H34.0703L34.5625 279.001C35.2188 279.006 35.7526 279.136 36.1641 279.392C36.5807 279.647 36.888 279.975 37.0859 280.376C37.2839 280.777 37.3828 281.209 37.3828 281.673C37.3828 282.402 37.224 283.014 36.9062 283.509C36.5938 284.004 36.1354 284.376 35.5312 284.626C34.9323 284.876 34.2057 285.001 33.3516 285.001ZM41.2734 276.548V285.001H39.2031V276.548H41.2734ZM39.0625 274.337C39.0625 274.03 39.1667 273.774 39.375 273.571C39.5885 273.368 39.875 273.267 40.2344 273.267C40.5938 273.267 40.8776 273.368 41.0859 273.571C41.2995 273.774 41.4062 274.03 41.4062 274.337C41.4062 274.639 41.2995 274.892 41.0859 275.095C40.8776 275.298 40.5938 275.399 40.2344 275.399C39.875 275.399 39.5885 275.298 39.375 275.095C39.1667 274.892 39.0625 274.639 39.0625 274.337ZM45.3047 278.274V285.001H43.2422V276.548H45.1953L45.3047 278.274ZM47.875 276.493L47.8438 278.415C47.7292 278.394 47.599 278.379 47.4531 278.368C47.3125 278.358 47.1797 278.353 47.0547 278.353C46.737 278.353 46.4583 278.397 46.2188 278.485C45.9792 278.569 45.7786 278.691 45.6172 278.853C45.4609 279.014 45.3411 279.212 45.2578 279.446C45.1745 279.675 45.1276 279.936 45.1172 280.228L44.6719 280.173C44.6719 279.636 44.7266 279.139 44.8359 278.681C44.9453 278.222 45.1042 277.821 45.3125 277.478C45.5208 277.134 45.7812 276.868 46.0938 276.681C46.4115 276.488 46.776 276.392 47.1875 276.392C47.3021 276.392 47.4245 276.402 47.5547 276.423C47.6901 276.438 47.7969 276.462 47.875 276.493ZM53.3984 276.548V278.032H48.5547V276.548H53.3984ZM49.8516 274.47H51.9219V282.563C51.9219 282.813 51.9557 283.006 52.0234 283.142C52.0911 283.277 52.1927 283.368 52.3281 283.415C52.4635 283.462 52.625 283.485 52.8125 283.485C52.9479 283.485 53.0729 283.478 53.1875 283.462C53.3021 283.446 53.3984 283.431 53.4766 283.415L53.4844 284.962C53.3125 285.019 53.1172 285.066 52.8984 285.103C52.6849 285.139 52.4427 285.157 52.1719 285.157C51.7083 285.157 51.3021 285.079 50.9531 284.923C50.6042 284.761 50.3333 284.504 50.1406 284.149C49.9479 283.79 49.8516 283.316 49.8516 282.728V274.47ZM56.7969 273.001V285.001H54.7266V273.001H56.7969ZM56.4688 280.47H55.8594C55.8594 279.881 55.9375 279.34 56.0938 278.845C56.25 278.35 56.4714 277.92 56.7578 277.556C57.0443 277.186 57.3854 276.899 57.7812 276.696C58.1823 276.493 58.625 276.392 59.1094 276.392C59.526 276.392 59.9036 276.452 60.2422 276.571C60.5859 276.686 60.8802 276.871 61.125 277.126C61.3698 277.381 61.5573 277.715 61.6875 278.126C61.8229 278.532 61.8906 279.027 61.8906 279.61V285.001H59.8125V279.595C59.8125 279.204 59.7552 278.897 59.6406 278.673C59.526 278.444 59.362 278.28 59.1484 278.181C58.9401 278.082 58.6823 278.032 58.375 278.032C58.0417 278.032 57.7552 278.097 57.5156 278.228C57.276 278.353 57.0781 278.527 56.9219 278.751C56.7708 278.975 56.6562 279.233 56.5781 279.524C56.5052 279.816 56.4688 280.131 56.4688 280.47ZM68.7812 283.204V273.001H70.8594V285.001H68.9844L68.7812 283.204ZM63.3516 280.876V280.712C63.3516 280.066 63.4245 279.48 63.5703 278.954C63.7214 278.423 63.9401 277.967 64.2266 277.587C64.513 277.207 64.8594 276.912 65.2656 276.704C65.6771 276.496 66.1432 276.392 66.6641 276.392C67.1693 276.392 67.6094 276.493 67.9844 276.696C68.3646 276.899 68.6875 277.188 68.9531 277.563C69.224 277.938 69.4401 278.384 69.6016 278.899C69.763 279.41 69.8802 279.972 69.9531 280.587V281.032C69.8802 281.631 69.763 282.181 69.6016 282.681C69.4401 283.181 69.224 283.618 68.9531 283.993C68.6875 284.363 68.3646 284.649 67.9844 284.853C67.6042 285.056 67.1589 285.157 66.6484 285.157C66.1328 285.157 65.6693 285.05 65.2578 284.837C64.8516 284.623 64.5052 284.324 64.2188 283.938C63.9375 283.553 63.7214 283.1 63.5703 282.579C63.4245 282.058 63.3516 281.491 63.3516 280.876ZM65.4219 280.712V280.876C65.4219 281.241 65.4531 281.582 65.5156 281.899C65.5781 282.217 65.6797 282.498 65.8203 282.743C65.9609 282.983 66.1406 283.17 66.3594 283.306C66.5833 283.441 66.8542 283.509 67.1719 283.509C67.5781 283.509 67.9115 283.42 68.1719 283.243C68.4375 283.061 68.6432 282.813 68.7891 282.501C68.9349 282.183 69.0286 281.827 69.0703 281.431V280.204C69.0495 279.892 68.9948 279.603 68.9062 279.337C68.8229 279.071 68.7031 278.842 68.5469 278.649C68.3958 278.457 68.2083 278.306 67.9844 278.196C67.7604 278.087 67.4948 278.032 67.1875 278.032C66.8698 278.032 66.599 278.103 66.375 278.243C66.151 278.379 65.9688 278.569 65.8281 278.813C65.6875 279.058 65.5833 279.342 65.5156 279.665C65.4531 279.988 65.4219 280.337 65.4219 280.712ZM77.3828 283.204V279.306C77.3828 279.019 77.3333 278.772 77.2344 278.563C77.1354 278.355 76.9844 278.194 76.7812 278.079C76.5781 277.965 76.3203 277.907 76.0078 277.907C75.7318 277.907 75.4896 277.954 75.2812 278.048C75.0781 278.142 74.9219 278.274 74.8125 278.446C74.7031 278.613 74.6484 278.806 74.6484 279.024H72.5781C72.5781 278.675 72.6615 278.345 72.8281 278.032C72.9948 277.715 73.2318 277.433 73.5391 277.188C73.8516 276.938 74.224 276.743 74.6562 276.603C75.0938 276.462 75.5833 276.392 76.125 276.392C76.7656 276.392 77.3359 276.501 77.8359 276.72C78.3411 276.933 78.737 277.256 79.0234 277.688C79.3151 278.121 79.4609 278.665 79.4609 279.321V283.009C79.4609 283.431 79.487 283.793 79.5391 284.095C79.5964 284.392 79.6797 284.649 79.7891 284.868V285.001H77.6875C77.5885 284.787 77.513 284.517 77.4609 284.188C77.4089 283.855 77.3828 283.527 77.3828 283.204ZM77.6719 279.853L77.6875 281.079H76.3828C76.0599 281.079 75.776 281.113 75.5312 281.181C75.2865 281.243 75.0859 281.337 74.9297 281.462C74.7734 281.582 74.6562 281.728 74.5781 281.899C74.5 282.066 74.4609 282.256 74.4609 282.47C74.4609 282.678 74.5078 282.866 74.6016 283.032C74.7005 283.199 74.8411 283.332 75.0234 283.431C75.2109 283.524 75.4297 283.571 75.6797 283.571C76.0443 283.571 76.362 283.498 76.6328 283.353C76.9036 283.202 77.1146 283.019 77.2656 282.806C77.4167 282.592 77.4974 282.389 77.5078 282.196L78.1016 283.087C78.0286 283.3 77.9193 283.527 77.7734 283.767C77.6276 284.006 77.4401 284.23 77.2109 284.438C76.9818 284.647 76.7057 284.819 76.3828 284.954C76.0599 285.09 75.6849 285.157 75.2578 285.157C74.7109 285.157 74.2214 285.048 73.7891 284.829C73.3568 284.61 73.0156 284.311 72.7656 283.931C72.5156 283.55 72.3906 283.118 72.3906 282.634C72.3906 282.186 72.474 281.79 72.6406 281.446C72.8073 281.103 73.0547 280.813 73.3828 280.579C73.7109 280.34 74.1172 280.16 74.6016 280.04C75.0911 279.915 75.651 279.853 76.2812 279.853H77.6719ZM83.6719 284.063L85.9375 276.548H88.1484L84.7578 286.282C84.6797 286.491 84.5781 286.717 84.4531 286.962C84.3333 287.207 84.1719 287.438 83.9688 287.657C83.7656 287.881 83.5104 288.063 83.2031 288.204C82.901 288.345 82.5339 288.415 82.1016 288.415C81.9141 288.415 81.7474 288.402 81.6016 288.376C81.4557 288.35 81.3021 288.316 81.1406 288.274V286.728C81.1927 286.733 81.2526 286.735 81.3203 286.735C81.3932 286.741 81.4557 286.743 81.5078 286.743C81.8099 286.743 82.0599 286.707 82.2578 286.634C82.4557 286.566 82.6146 286.454 82.7344 286.298C82.8594 286.147 82.9635 285.949 83.0469 285.704L83.6719 284.063ZM82.5547 276.548L84.4688 282.774L84.8047 284.954L83.3828 285.212L80.3281 276.548H82.5547Z" fill="#332317"/>
</g>
<rect x="12.5" y="256.5" width="403" height="47.002" rx="7.5" stroke="#A77C5D"/>
<path fill-rule="evenodd" clip-rule="evenodd" d="M385 271.25C385.414 271.25 385.75 271.586 385.75 272V273.668C388.578 273.416 391.422 273.416 394.25 273.668V272C394.25 271.586 394.586 271.25 395 271.25C395.414 271.25 395.75 271.586 395.75 272V273.816C397.243 274.028 398.423 275.208 398.622 276.715L398.709 277.368C399.073 280.114 399.041 282.898 398.615 285.636C398.404 286.992 397.303 288.033 395.937 288.168L394.744 288.286C391.589 288.597 388.411 288.597 385.256 288.286L384.063 288.168C382.697 288.033 381.596 286.992 381.385 285.636C380.959 282.898 380.927 280.114 381.291 277.368L381.378 276.715C381.577 275.208 382.757 274.028 384.25 273.816V272C384.25 271.586 384.586 271.25 385 271.25ZM385.445 275.203C388.474 274.904 391.526 274.904 394.555 275.203L395.46 275.292C396.327 275.378 397.021 276.049 397.135 276.912L397.222 277.565C397.252 277.793 397.279 278.021 397.304 278.25H382.696C382.721 278.021 382.748 277.793 382.778 277.565L382.865 276.912C382.979 276.049 383.673 275.378 384.54 275.292L385.445 275.203ZM382.577 279.75C382.479 281.638 382.575 283.533 382.867 285.405C382.973 286.085 383.525 286.608 384.21 286.675L385.403 286.793C388.46 287.095 391.54 287.095 394.597 286.793L395.79 286.675C396.475 286.608 397.027 286.085 397.133 285.405C397.425 283.533 397.521 281.638 397.423 279.75H382.577Z" fill="#A77C5D"/>
<g filter="url(#filter0_d_62_458)">
<rect width="428" height="56" fill="#A77C5D"/>
</g>
<path d="M60.2812 30.5742H62.5312C62.4141 31.6523 62.1055 32.6172 61.6055 33.4688C61.1055 34.3203 60.3984 34.9961 59.4844 35.4961C58.5703 35.9883 57.4297 36.2344 56.0625 36.2344C55.0625 36.2344 54.1523 36.0469 53.332 35.6719C52.5195 35.2969 51.8203 34.7656 51.2344 34.0781C50.6484 33.3828 50.1953 32.5508 49.875 31.582C49.5625 30.6055 49.4062 29.5195 49.4062 28.3242V26.625C49.4062 25.4297 49.5625 24.3477 49.875 23.3789C50.1953 22.4023 50.6523 21.5664 51.2461 20.8711C51.8477 20.1758 52.5703 19.6406 53.4141 19.2656C54.2578 18.8906 55.207 18.7031 56.2617 18.7031C57.5508 18.7031 58.6406 18.9453 59.5312 19.4297C60.4219 19.9141 61.1133 20.5859 61.6055 21.4453C62.1055 22.2969 62.4141 23.2852 62.5312 24.4102H60.2812C60.1719 23.6133 59.9688 22.9297 59.6719 22.3594C59.375 21.7812 58.9531 21.3359 58.4062 21.0234C57.8594 20.7109 57.1445 20.5547 56.2617 20.5547C55.5039 20.5547 54.8359 20.6992 54.2578 20.9883C53.6875 21.2773 53.207 21.6875 52.8164 22.2188C52.4336 22.75 52.1445 23.3867 51.9492 24.1289C51.7539 24.8711 51.6562 25.6953 51.6562 26.6016V28.3242C51.6562 29.1602 51.7422 29.9453 51.9141 30.6797C52.0938 31.4141 52.3633 32.0586 52.7227 32.6133C53.082 33.168 53.5391 33.6055 54.0938 33.9258C54.6484 34.2383 55.3047 34.3945 56.0625 34.3945C57.0234 34.3945 57.7891 34.2422 58.3594 33.9375C58.9297 33.6328 59.3594 33.1953 59.6484 32.625C59.9453 32.0547 60.1562 31.3711 60.2812 30.5742ZM67.4531 25.3125V36H65.2852V23.3203H67.3945L67.4531 25.3125ZM71.4141 23.25L71.4023 25.2656C71.2227 25.2266 71.0508 25.2031 70.8867 25.1953C70.7305 25.1797 70.5508 25.1719 70.3477 25.1719C69.8477 25.1719 69.4062 25.25 69.0234 25.4062C68.6406 25.5625 68.3164 25.7812 68.0508 26.0625C67.7852 26.3438 67.5742 26.6797 67.418 27.0703C67.2695 27.4531 67.1719 27.875 67.125 28.3359L66.5156 28.6875C66.5156 27.9219 66.5898 27.2031 66.7383 26.5312C66.8945 25.8594 67.1328 25.2656 67.4531 24.75C67.7734 24.2266 68.1797 23.8203 68.6719 23.5312C69.1719 23.2344 69.7656 23.0859 70.4531 23.0859C70.6094 23.0859 70.7891 23.1055 70.9922 23.1445C71.1953 23.1758 71.3359 23.2109 71.4141 23.25ZM78.4453 36.2344C77.5625 36.2344 76.7617 36.0859 76.043 35.7891C75.332 35.4844 74.7188 35.0586 74.2031 34.5117C73.6953 33.9648 73.3047 33.3164 73.0312 32.5664C72.7578 31.8164 72.6211 30.9961 72.6211 30.1055V29.6133C72.6211 28.582 72.7734 27.6641 73.0781 26.8594C73.3828 26.0469 73.7969 25.3594 74.3203 24.7969C74.8438 24.2344 75.4375 23.8086 76.1016 23.5195C76.7656 23.2305 77.4531 23.0859 78.1641 23.0859C79.0703 23.0859 79.8516 23.2422 80.5078 23.5547C81.1719 23.8672 81.7148 24.3047 82.1367 24.8672C82.5586 25.4219 82.8711 26.0781 83.0742 26.8359C83.2773 27.5859 83.3789 28.4062 83.3789 29.2969V30.2695H73.9102V28.5H81.2109V28.3359C81.1797 27.7734 81.0625 27.2266 80.8594 26.6953C80.6641 26.1641 80.3516 25.7266 79.9219 25.3828C79.4922 25.0391 78.9062 24.8672 78.1641 24.8672C77.6719 24.8672 77.2188 24.9727 76.8047 25.1836C76.3906 25.3867 76.0352 25.6914 75.7383 26.0977C75.4414 26.5039 75.2109 27 75.0469 27.5859C74.8828 28.1719 74.8008 28.8477 74.8008 29.6133V30.1055C74.8008 30.707 74.8828 31.2734 75.0469 31.8047C75.2188 32.3281 75.4648 32.7891 75.7852 33.1875C76.1133 33.5859 76.5078 33.8984 76.9688 34.125C77.4375 34.3516 77.9688 34.4648 78.5625 34.4648C79.3281 34.4648 79.9766 34.3086 80.5078 33.9961C81.0391 33.6836 81.5039 33.2656 81.9023 32.7422L83.2148 33.7852C82.9414 34.1992 82.5938 34.5938 82.1719 34.9688C81.75 35.3438 81.2305 35.6484 80.6133 35.8828C80.0039 36.1172 79.2812 36.2344 78.4453 36.2344ZM93.3867 33.832V27.3047C93.3867 26.8047 93.2852 26.3711 93.082 26.0039C92.8867 25.6289 92.5898 25.3398 92.1914 25.1367C91.793 24.9336 91.3008 24.832 90.7148 24.832C90.168 24.832 89.6875 24.9258 89.2734 25.1133C88.8672 25.3008 88.5469 25.5469 88.3125 25.8516C88.0859 26.1562 87.9727 26.4844 87.9727 26.8359H85.8047C85.8047 26.3828 85.9219 25.9336 86.1562 25.4883C86.3906 25.043 86.7266 24.6406 87.1641 24.2812C87.6094 23.9141 88.1406 23.625 88.7578 23.4141C89.3828 23.1953 90.0781 23.0859 90.8438 23.0859C91.7656 23.0859 92.5781 23.2422 93.2812 23.5547C93.9922 23.8672 94.5469 24.3398 94.9453 24.9727C95.3516 25.5977 95.5547 26.3828 95.5547 27.3281V33.2344C95.5547 33.6562 95.5898 34.1055 95.6602 34.582C95.7383 35.0586 95.8516 35.4688 96 35.8125V36H93.7383C93.6289 35.75 93.543 35.418 93.4805 35.0039C93.418 34.582 93.3867 34.1914 93.3867 33.832ZM93.7617 28.3125L93.7852 29.8359H91.5938C90.9766 29.8359 90.4258 29.8867 89.9414 29.9883C89.457 30.082 89.0508 30.2266 88.7227 30.4219C88.3945 30.6172 88.1445 30.8633 87.9727 31.1602C87.8008 31.4492 87.7148 31.7891 87.7148 32.1797C87.7148 32.5781 87.8047 32.9414 87.9844 33.2695C88.1641 33.5977 88.4336 33.8594 88.793 34.0547C89.1602 34.2422 89.6094 34.3359 90.1406 34.3359C90.8047 34.3359 91.3906 34.1953 91.8984 33.9141C92.4062 33.6328 92.8086 33.2891 93.1055 32.8828C93.4102 32.4766 93.5742 32.082 93.5977 31.6992L94.5234 32.7422C94.4688 33.0703 94.3203 33.4336 94.0781 33.832C93.8359 34.2305 93.5117 34.6133 93.1055 34.9805C92.707 35.3398 92.2305 35.6406 91.6758 35.8828C91.1289 36.1172 90.5117 36.2344 89.8242 36.2344C88.9648 36.2344 88.2109 36.0664 87.5625 35.7305C86.9219 35.3945 86.4219 34.9453 86.0625 34.3828C85.7109 33.8125 85.5352 33.1758 85.5352 32.4727C85.5352 31.793 85.668 31.1953 85.9336 30.6797C86.1992 30.1562 86.582 29.7227 87.082 29.3789C87.582 29.0273 88.1836 28.7617 88.8867 28.582C89.5898 28.4023 90.375 28.3125 91.2422 28.3125H93.7617ZM104.273 23.3203V24.9844H97.418V23.3203H104.273ZM99.7383 20.2383H101.906V32.8594C101.906 33.2891 101.973 33.6133 102.105 33.832C102.238 34.0508 102.41 34.1953 102.621 34.2656C102.832 34.3359 103.059 34.3711 103.301 34.3711C103.48 34.3711 103.668 34.3555 103.863 34.3242C104.066 34.2852 104.219 34.2539 104.32 34.2305L104.332 36C104.16 36.0547 103.934 36.1055 103.652 36.1523C103.379 36.207 103.047 36.2344 102.656 36.2344C102.125 36.2344 101.637 36.1289 101.191 35.918C100.746 35.707 100.391 35.3555 100.125 34.8633C99.8672 34.3633 99.7383 33.6914 99.7383 32.8477V20.2383ZM112.078 36.2344C111.195 36.2344 110.395 36.0859 109.676 35.7891C108.965 35.4844 108.352 35.0586 107.836 34.5117C107.328 33.9648 106.938 33.3164 106.664 32.5664C106.391 31.8164 106.254 30.9961 106.254 30.1055V29.6133C106.254 28.582 106.406 27.6641 106.711 26.8594C107.016 26.0469 107.43 25.3594 107.953 24.7969C108.477 24.2344 109.07 23.8086 109.734 23.5195C110.398 23.2305 111.086 23.0859 111.797 23.0859C112.703 23.0859 113.484 23.2422 114.141 23.5547C114.805 23.8672 115.348 24.3047 115.77 24.8672C116.191 25.4219 116.504 26.0781 116.707 26.8359C116.91 27.5859 117.012 28.4062 117.012 29.2969V30.2695H107.543V28.5H114.844V28.3359C114.812 27.7734 114.695 27.2266 114.492 26.6953C114.297 26.1641 113.984 25.7266 113.555 25.3828C113.125 25.0391 112.539 24.8672 111.797 24.8672C111.305 24.8672 110.852 24.9727 110.438 25.1836C110.023 25.3867 109.668 25.6914 109.371 26.0977C109.074 26.5039 108.844 27 108.68 27.5859C108.516 28.1719 108.434 28.8477 108.434 29.6133V30.1055C108.434 30.707 108.516 31.2734 108.68 31.8047C108.852 32.3281 109.098 32.7891 109.418 33.1875C109.746 33.5859 110.141 33.8984 110.602 34.125C111.07 34.3516 111.602 34.4648 112.195 34.4648C112.961 34.4648 113.609 34.3086 114.141 33.9961C114.672 33.6836 115.137 33.2656 115.535 32.7422L116.848 33.7852C116.574 34.1992 116.227 34.5938 115.805 34.9688C115.383 35.3438 114.863 35.6484 114.246 35.8828C113.637 36.1172 112.914 36.2344 112.078 36.2344Z" fill="#332317"/>
<path d="M22.0927 24.4773C22.4306 24.1394 22.4306 23.5914 22.0927 23.2535C21.7547 22.9155 21.2068 22.9155 20.8688 23.2535L16.2535 27.8688C16.0845 28.0378 16 28.2593 16 28.4808C16 28.5981 16.0234 28.71 16.0657 28.812C16.1079 28.9141 16.1705 29.0097 16.2535 29.0927L20.8688 33.7081C21.2068 34.046 21.7547 34.046 22.0927 33.7081C22.4306 33.3701 22.4306 32.8222 22.0927 32.4842L18.9546 29.3462H30.1346C30.6126 29.3462 31 28.9587 31 28.4808C31 28.0028 30.6126 27.6154 30.1346 27.6154H18.9546L22.0927 24.4773Z" fill="#332317"/>
</g>
<defs>
<filter id="filter0_d_62_458" x="-4" y="0" width="436" height="64" filterUnits="userSpaceOnUse" color-interpolation-filters="sRGB">
<feFlood flood-opacity="0" result="BackgroundImageFix"/>
<feColorMatrix in="SourceAlpha" type="matrix" values="0 0 0 0 0 0 0 0 0 0 0 0 0 0 0 0 0 0 127 0" result="hardAlpha"/>
<feOffset dy="4"/>
<feGaussianBlur stdDeviation="2"/>
<feComposite in2="hardAlpha" operator="out"/>
<feColorMatrix type="matrix" values="0 0 0 0 0 0 0 0 0 0 0 0 0 0 0 0 0 0 0.25 0"/>
<feBlend mode="normal" in2="BackgroundImageFix" result="effect1_dropShadow_62_458"/>
<feBlend mode="normal" in="SourceGraphic" in2="effect1_dropShadow_62_458" result="shape"/>
</filter>
<clipPath id="clip0_62_458">
<rect width="428" height="762" fill="white"/>
</clipPath>
<clipPath id="clip1_62_458">
<rect width="43" height="24" fill="white" transform="translate(28 92.001)"/>
</clipPath>
<clipPath id="clip2_62_458">
<rect width="57" height="24" fill="white" transform="translate(28 180.001)"/>
</clipPath>
<clipPath id="clip3_62_458">
<rect width="61" height="24" fill="white" transform="translate(28 268.001)"/>
</clipPath>
</defs>
</svg>
